<?xml version="1.0" encoding="UTF-8"?>
<svg id="Layer_2" data-name="Layer 2" xmlns="http://www.w3.org/2000/svg" viewBox="0 0 904.86 268.12">
  <defs>
    <style>
      .cls-1, .cls-2 {
        fill: #92d2d8;
      }

      .cls-3 {
        fill: #fff;
      }

      .cls-4 {
        fill: #d1d3d4;
      }

      .cls-4, .cls-5, .cls-2 {
        fill-rule: evenodd;
      }

      .cls-5, .cls-6 {
        fill: #ffd12e;
      }

      .cls-7 {
        fill: #007b55;
      }

      .cls-8 {
        fill: #0f426b;
      }
    </style>
  </defs>
  <g id="intranet_use_final" data-name="intranet use final">
    <g id="horizontal_fullcolor">
      <g id="text">
        <g id="_1" data-name="1">
          <g id="WDFW_Logo_-_stacked" data-name="WDFW Logo - stacked">
            <g>
              <g>
                <path class="cls-7" d="m254.26,106.27l-8.56-37.05-3.09-.42v-3.58h11.88v3.58l-3.8.65,4.78,22.59,1.11,5.27.15.03,1.46-5.27,7.38-26.84h4.35l7.45,26.84,1.44,5.58h.15l1.31-5.58,4.73-22.61-4.1-.65v-3.58h11.68v3.58l-2.89.42-8.21,37.05h-4.71l-7.95-28.42-1.01-4.14h-.15l-.98,4.14-7.98,28.42h-4.43Z"/>
                <path class="cls-7" d="m305.06,106.86c-2.84,0-4.99-.78-6.47-2.33-1.48-1.55-2.21-3.74-2.21-6.56,0-1.94.47-3.62,1.42-5.06.95-1.44,2.32-2.56,4.12-3.36,1.79-.8,3.94-1.2,6.45-1.2h4.86v-2.99c0-1.84-.5-3.27-1.5-4.29-1-1.01-2.4-1.52-4.22-1.52-1.14,0-2.13.16-2.97.47s-1.6.74-2.29,1.28l-.53,4.26h-3.83v-6.99c1.22-1.11,2.65-1.95,4.28-2.52,1.63-.57,3.43-.86,5.41-.86,3.31,0,5.9.88,7.78,2.65,1.88,1.77,2.82,4.29,2.82,7.58v14.69c0,.4,0,.78.01,1.16,0,.37.03.75.06,1.13l2.65.31v3.55h-7.13c-.15-.83-.27-1.57-.35-2.23-.09-.66-.14-1.32-.18-1.97-.96,1.37-2.15,2.52-3.59,3.43-1.43.91-2.96,1.37-4.59,1.37Zm.73-4.65c1.65,0,3.15-.44,4.51-1.33,1.36-.88,2.33-1.95,2.92-3.19v-5.53h-5.03c-2.28,0-4,.61-5.14,1.84-1.14,1.22-1.71,2.58-1.71,4.09,0,1.34.37,2.35,1.11,3.06.74.71,1.85,1.06,3.35,1.06Z"/>
                <path class="cls-7" d="m335.77,106.86c-1.83,0-3.54-.21-5.14-.62-1.59-.41-3.29-1.05-5.08-1.92l-.05-7.25h3.75l.93,4.37c.94.43,1.85.75,2.73.95.88.2,1.84.29,2.86.29,2.02,0,3.46-.43,4.33-1.3.87-.86,1.31-1.94,1.31-3.21,0-1.2-.44-2.22-1.32-3.06-.88-.84-2.48-1.55-4.8-2.13-3.29-.85-5.71-1.98-7.26-3.4-1.55-1.42-2.33-3.31-2.33-5.68,0-1.65.43-3.14,1.28-4.44.85-1.31,2.05-2.34,3.58-3.12,1.53-.77,3.3-1.15,5.33-1.15s3.83.26,5.3.79c1.47.53,2.75,1.23,3.84,2.11l.25,6.96h-3.73l-.8-4.06c-.59-.49-1.28-.86-2.09-1.13-.8-.26-1.73-.39-2.77-.39-1.54,0-2.8.4-3.76,1.21-.97.81-1.45,1.82-1.45,3.04,0,.72.14,1.34.42,1.86.28.53.81,1,1.6,1.42.79.42,1.95.84,3.47,1.26,3.79,1,6.44,2.27,7.94,3.81s2.25,3.44,2.25,5.7c0,2.58-.85,4.73-2.56,6.47-1.7,1.74-4.38,2.61-8.04,2.61Z"/>
                <path class="cls-7" d="m349.85,106.27v-3.55l4.1-.79v-35.27l-4.1-.79v-3.58h9.06v17.54c.94-1.46,2.09-2.6,3.45-3.41,1.36-.81,2.87-1.21,4.53-1.21,2.92,0,5.19.98,6.8,2.93,1.61,1.96,2.42,4.96,2.42,9.02v14.77l4.1.79v3.55h-13.17v-3.55l4.1-.79v-14.83c0-2.52-.48-4.38-1.45-5.58s-2.4-1.8-4.32-1.8c-1.36,0-2.6.36-3.71,1.09s-2.03,1.71-2.76,2.95v18.18l4.1.79v3.55h-13.17Z"/>
                <path class="cls-7" d="m383.4,106.27v-3.55l4.1-.79v-21.79l-4.1-.79v-3.58h9.06v26.16l4.1.79v3.55h-13.17Zm3.85-38.04v-5.95h5.21v5.95h-5.21Z"/>
                <path class="cls-7" d="m399.99,106.27v-3.55l4.1-.79v-21.79l-4.1-.79v-3.58h8.53l.35,4.54c.91-1.62,2.04-2.87,3.41-3.77,1.37-.89,2.92-1.34,4.67-1.34,2.94,0,5.21.97,6.82,2.89,1.61,1.93,2.42,4.9,2.42,8.93v14.91l4.1.79v3.55h-13.17v-3.55l4.1-.79v-14.8c0-2.69-.47-4.59-1.42-5.72-.95-1.13-2.4-1.69-4.34-1.69-1.43,0-2.69.39-3.79,1.15-1.1.77-1.97,1.82-2.63,3.16v17.9l4.1.79v3.55h-13.17Z"/>
                <path class="cls-7" d="m445.76,118.59c-1.31,0-2.73-.2-4.26-.61-1.53-.41-2.87-.95-4.03-1.65l1.28-4.31c.92.54,2.02.99,3.27,1.35,1.26.36,2.48.54,3.68.54,2.21,0,3.84-.7,4.87-2.09,1.03-1.39,1.55-3.37,1.55-5.95v-2.9c-.89,1.28-1.96,2.25-3.2,2.9-1.24.66-2.67.99-4.28.99-2.21,0-4.13-.62-5.74-1.85s-2.85-2.95-3.71-5.16-1.29-4.77-1.29-7.69v-.59c0-3.27.43-6.14,1.29-8.6.86-2.46,2.1-4.37,3.71-5.74,1.61-1.36,3.54-2.04,5.79-2.04,1.71,0,3.21.38,4.51,1.13,1.29.75,2.37,1.84,3.25,3.27l.45-3.83h4.18v30.11c0,2.63-.44,4.89-1.32,6.79-.88,1.9-2.16,3.36-3.85,4.39-1.69,1.03-3.74,1.54-6.15,1.54Zm.13-16.24c1.49,0,2.74-.38,3.75-1.14,1.01-.76,1.84-1.84,2.49-3.23v-14.04c-.64-1.29-1.47-2.33-2.49-3.08-1.03-.76-2.26-1.14-3.7-1.14-1.58,0-2.89.51-3.94,1.52-1.05,1.02-1.83,2.41-2.35,4.19-.52,1.78-.78,3.83-.78,6.16v.59c0,3.07.58,5.53,1.74,7.39s2.92,2.79,5.29,2.79Zm10.44-22.05l-1.94-4.54h6.07v3.55l-4.13.99Z"/>
                <path class="cls-7" d="m475.63,106.75c-2.02,0-3.61-.66-4.8-1.99s-1.78-3.44-1.78-6.36v-18.53h-4.3v-4.12h4.3v-7.36h4.96v7.36h5.91v4.12h-5.91v18.53c0,1.46.26,2.55.78,3.24.52.7,1.22,1.04,2.09,1.04.59,0,1.24-.06,1.96-.18.72-.12,1.28-.23,1.69-.32l.68,3.64c-.72.24-1.61.46-2.65.65-1.05.19-2.03.28-2.93.28Z"/>
                <path class="cls-7" d="m496.7,106.86c-2.52,0-4.69-.66-6.51-1.99-1.82-1.33-3.23-3.16-4.22-5.5s-1.48-5.01-1.48-8.02v-.62c0-3.01.49-5.68,1.48-8.02.99-2.34,2.4-4.18,4.22-5.51,1.82-1.34,3.97-2,6.45-2s4.69.67,6.51,2c1.82,1.34,3.23,3.17,4.22,5.5.99,2.33,1.48,5.01,1.48,8.04v.62c0,3.02-.5,5.71-1.48,8.05-.99,2.34-2.39,4.17-4.21,5.48s-3.97,1.97-6.47,1.97Zm0-4.34c1.58,0,2.9-.48,3.96-1.45s1.87-2.29,2.42-3.98c.54-1.68.82-3.59.82-5.74v-.62c0-2.14-.28-4.06-.82-5.74-.54-1.68-1.35-3.01-2.43-3.98-1.07-.97-2.41-1.45-4-1.45s-2.9.48-3.98,1.45c-1.07.97-1.88,2.29-2.42,3.98-.53,1.68-.8,3.59-.8,5.74v.62c0,2.14.27,4.06.8,5.74.54,1.68,1.35,3.01,2.43,3.98s2.42,1.45,4.02,1.45Z"/>
                <path class="cls-7" d="m512.69,106.27v-3.55l4.1-.79v-21.79l-4.1-.79v-3.58h8.53l.35,4.54c.91-1.62,2.04-2.87,3.41-3.77,1.37-.89,2.92-1.34,4.67-1.34,2.94,0,5.21.97,6.82,2.89,1.61,1.93,2.42,4.9,2.42,8.93v14.91l4.1.79v3.55h-13.17v-3.55l4.1-.79v-14.8c0-2.69-.47-4.59-1.42-5.72-.95-1.13-2.4-1.69-4.34-1.69-1.43,0-2.69.39-3.79,1.15-1.1.77-1.97,1.82-2.63,3.16v17.9l4.1.79v3.55h-13.17Z"/>
                <path class="cls-7" d="m559.48,106.27v-3.55l4.1-.79v-32.34l-4.1-.79v-3.58h14.35c3.24,0,6.06.86,8.47,2.59,2.41,1.73,4.28,4.11,5.63,7.13,1.34,3.02,2.01,6.48,2.01,10.37v.87c0,3.8-.65,7.21-1.94,10.25-1.29,3.04-3.13,5.43-5.5,7.19-2.37,1.76-5.18,2.64-8.42,2.64h-14.6Zm9.07-4.34h5.28c2.32,0,4.31-.71,5.97-2.13,1.66-1.42,2.94-3.32,3.84-5.7.9-2.38,1.35-5.02,1.35-7.91v-.93c0-2.99-.45-5.66-1.35-8.02-.9-2.36-2.18-4.22-3.84-5.6-1.66-1.37-3.65-2.06-5.97-2.06h-5.28v32.34Z"/>
                <path class="cls-7" d="m605.85,106.86c-2.52,0-4.71-.65-6.57-1.93-1.86-1.28-3.3-3.08-4.32-5.37s-1.52-4.94-1.52-7.95v-1.24c0-2.9.53-5.48,1.6-7.77s2.48-4.09,4.26-5.41c1.77-1.32,3.7-1.99,5.8-1.99,2.45,0,4.5.56,6.16,1.69,1.65,1.13,2.9,2.71,3.74,4.75.84,2.04,1.26,4.44,1.26,7.2v3.47h-17.67l-.08.14c.03,1.96.34,3.69.92,5.2.58,1.51,1.41,2.7,2.51,3.57s2.4,1.3,3.93,1.3c1.68,0,3.15-.27,4.42-.8,1.27-.54,2.36-1.28,3.29-2.21l1.94,3.61c-.97,1.05-2.26,1.94-3.86,2.66-1.6.72-3.53,1.09-5.78,1.09Zm-7.12-18.89h12.56v-.73c0-1.46-.23-2.78-.69-3.93s-1.15-2.07-2.07-2.73-2.06-1-3.44-1c-1.11,0-2.11.36-3.02,1.09-.91.72-1.65,1.71-2.24,2.95-.59,1.24-.97,2.65-1.16,4.23l.05.14Z"/>
                <path class="cls-7" d="m619.35,118v-3.58l3.85-.79v-33.49l-4.1-.79v-3.58h8.36l.45,3.72c.91-1.39,2.01-2.46,3.31-3.19,1.3-.73,2.81-1.1,4.52-1.1,2.25,0,4.17.68,5.76,2.04,1.59,1.36,2.81,3.27,3.65,5.72s1.26,5.33,1.26,8.61v.59c0,2.93-.42,5.5-1.27,7.7s-2.06,3.91-3.64,5.14c-1.58,1.23-3.47,1.85-5.69,1.85-1.68,0-3.15-.32-4.42-.95-1.27-.63-2.34-1.56-3.23-2.8v10.51l4.33.79v3.58h-13.14Zm14.93-15.48c2.35,0,4.13-.96,5.34-2.88s1.81-4.41,1.81-7.47v-.59c0-2.33-.27-4.38-.8-6.16-.54-1.78-1.34-3.17-2.4-4.19s-2.4-1.52-3.99-1.52c-1.41,0-2.62.36-3.63,1.07-1.01.72-1.82,1.69-2.44,2.93v14.86c.62,1.26,1.43,2.23,2.43,2.92,1,.69,2.23,1.03,3.69,1.03Z"/>
                <path class="cls-7" d="m659.04,106.86c-2.84,0-4.99-.78-6.47-2.33-1.48-1.55-2.21-3.74-2.21-6.56,0-1.94.47-3.62,1.42-5.06.95-1.44,2.32-2.56,4.12-3.36,1.79-.8,3.94-1.2,6.45-1.2h4.86v-2.99c0-1.84-.5-3.27-1.5-4.29-1-1.01-2.4-1.52-4.22-1.52-1.14,0-2.13.16-2.97.47s-1.6.74-2.29,1.28l-.53,4.26h-3.83v-6.99c1.22-1.11,2.65-1.95,4.28-2.52,1.63-.57,3.43-.86,5.41-.86,3.31,0,5.9.88,7.78,2.65,1.88,1.77,2.82,4.29,2.82,7.58v14.69c0,.4,0,.78.01,1.16,0,.37.03.75.06,1.13l2.65.31v3.55h-7.13c-.15-.83-.27-1.57-.35-2.23-.09-.66-.14-1.32-.18-1.97-.96,1.37-2.15,2.52-3.59,3.43-1.43.91-2.96,1.37-4.59,1.37Zm.73-4.65c1.65,0,3.15-.44,4.51-1.33,1.36-.88,2.33-1.95,2.92-3.19v-5.53h-5.03c-2.28,0-4,.61-5.14,1.84-1.14,1.22-1.71,2.58-1.71,4.09,0,1.34.37,2.35,1.11,3.06.74.71,1.85,1.06,3.35,1.06Z"/>
                <path class="cls-7" d="m678.68,106.27v-3.55l4.1-.79v-21.79l-4.1-.79v-3.58h8.53l.43,3.89.05.53c.77-1.56,1.72-2.78,2.86-3.66s2.43-1.33,3.89-1.33c.52,0,1.05.05,1.6.16.55.1.94.2,1.17.3l-.65,5.16-3.45-.22c-1.31-.09-2.41.24-3.3,1-.89.76-1.58,1.78-2.06,3.06v17.28l4.1.79v3.55h-13.17Z"/>
                <path class="cls-7" d="m709.84,106.75c-2.02,0-3.61-.66-4.8-1.99s-1.78-3.44-1.78-6.36v-18.53h-4.3v-4.12h4.3v-7.36h4.96v7.36h5.91v4.12h-5.91v18.53c0,1.46.26,2.55.78,3.24.52.7,1.22,1.04,2.09,1.04.59,0,1.24-.06,1.96-.18.72-.12,1.28-.23,1.69-.32l.68,3.64c-.72.24-1.61.46-2.65.65-1.05.19-2.03.28-2.93.28Z"/>
                <path class="cls-7" d="m718.6,106.27v-3.55l4.1-.79v-21.79l-4.1-.79v-3.58h8.56l.33,3.98c.87-1.45,2-2.57,3.37-3.36,1.38-.79,2.97-1.18,4.78-1.18s3.37.47,4.67,1.41,2.28,2.35,2.93,4.23c.85-1.73,1.99-3.1,3.4-4.12,1.41-1.01,3.05-1.52,4.93-1.52,2.78,0,4.98,1.07,6.6,3.2,1.61,2.13,2.41,5.34,2.41,9.63v13.9l4.1.79v3.55h-13.19v-3.55l4.1-.79v-13.95c0-3.01-.46-5.14-1.39-6.39-.92-1.25-2.29-1.87-4.1-1.87s-3.12.68-4.17,2.04c-1.05,1.36-1.66,3.08-1.83,5.14v15.03l4.1.79v3.55h-13.17v-3.55l4.1-.79v-13.95c0-2.86-.47-4.95-1.42-6.27-.95-1.33-2.32-1.99-4.12-1.99-1.51,0-2.75.35-3.72,1.04-.97.69-1.72,1.67-2.24,2.93v18.24l4.1.79v3.55h-13.17Z"/>
                <path class="cls-7" d="m780.78,106.86c-2.52,0-4.71-.65-6.57-1.93-1.86-1.28-3.3-3.08-4.32-5.37s-1.52-4.94-1.52-7.95v-1.24c0-2.9.53-5.48,1.6-7.77s2.48-4.09,4.26-5.41c1.77-1.32,3.7-1.99,5.8-1.99,2.45,0,4.5.56,6.16,1.69,1.65,1.13,2.9,2.71,3.74,4.75.84,2.04,1.26,4.44,1.26,7.2v3.47h-17.67l-.08.14c.03,1.96.34,3.69.92,5.2.58,1.51,1.41,2.7,2.51,3.57s2.4,1.3,3.93,1.3c1.68,0,3.15-.27,4.42-.8,1.27-.54,2.36-1.28,3.29-2.21l1.94,3.61c-.97,1.05-2.26,1.94-3.86,2.66-1.6.72-3.53,1.09-5.78,1.09Zm-7.12-18.89h12.56v-.73c0-1.46-.23-2.78-.69-3.93s-1.15-2.07-2.07-2.73-2.06-1-3.44-1c-1.11,0-2.11.36-3.02,1.09-.91.72-1.65,1.71-2.24,2.95-.59,1.24-.97,2.65-1.16,4.23l.05.14Z"/>
                <path class="cls-7" d="m795.03,106.27v-3.55l4.1-.79v-21.79l-4.1-.79v-3.58h8.53l.35,4.54c.91-1.62,2.04-2.87,3.41-3.77,1.37-.89,2.92-1.34,4.67-1.34,2.94,0,5.21.97,6.82,2.89,1.61,1.93,2.42,4.9,2.42,8.93v14.91l4.1.79v3.55h-13.17v-3.55l4.1-.79v-14.8c0-2.69-.47-4.59-1.42-5.72-.95-1.13-2.4-1.69-4.34-1.69-1.43,0-2.69.39-3.79,1.15-1.1.77-1.97,1.82-2.63,3.16v17.9l4.1.79v3.55h-13.17Z"/>
                <path class="cls-7" d="m838.45,106.75c-2.02,0-3.61-.66-4.8-1.99s-1.78-3.44-1.78-6.36v-18.53h-4.3v-4.12h4.3v-7.36h4.96v7.36h5.91v4.12h-5.91v18.53c0,1.46.26,2.55.78,3.24.52.7,1.22,1.04,2.09,1.04.59,0,1.24-.06,1.96-.18.72-.12,1.28-.23,1.69-.32l.68,3.64c-.72.24-1.61.46-2.65.65-1.05.19-2.03.28-2.93.28Z"/>
                <path class="cls-7" d="m872.34,106.86c-2.52,0-4.69-.66-6.51-1.99-1.82-1.33-3.23-3.16-4.22-5.5s-1.48-5.01-1.48-8.02v-.62c0-3.01.49-5.68,1.48-8.02.99-2.34,2.4-4.18,4.22-5.51,1.82-1.34,3.97-2,6.45-2s4.69.67,6.51,2c1.82,1.34,3.23,3.17,4.22,5.5.99,2.33,1.48,5.01,1.48,8.04v.62c0,3.02-.5,5.71-1.48,8.05-.99,2.34-2.39,4.17-4.21,5.48s-3.97,1.97-6.47,1.97Zm0-4.34c1.58,0,2.9-.48,3.96-1.45s1.87-2.29,2.42-3.98c.54-1.68.82-3.59.82-5.74v-.62c0-2.14-.28-4.06-.82-5.74-.54-1.68-1.35-3.01-2.43-3.98-1.07-.97-2.41-1.45-4-1.45s-2.9.48-3.98,1.45c-1.07.97-1.88,2.29-2.42,3.98-.53,1.68-.8,3.59-.8,5.74v.62c0,2.14.27,4.06.8,5.74.54,1.68,1.35,3.01,2.43,3.98s2.42,1.45,4.02,1.45Z"/>
                <path class="cls-7" d="m888.22,106.27v-3.55l4.1-.79v-22.05h-4.26v-4.12h4.26v-3.86c0-3.25.76-5.77,2.28-7.54s3.64-2.66,6.36-2.66c.57,0,1.19.05,1.85.16.66.1,1.35.25,2.05.44l-.6,4.23c-.3-.08-.71-.14-1.22-.2s-.99-.08-1.45-.08c-1.46,0-2.54.48-3.25,1.45-.71.97-1.06,2.37-1.06,4.22v3.86h5.94v4.12h-5.94v22.05l4.68.79v3.55h-13.74Z"/>
              </g>
              <g>
                <path class="cls-8" d="m244.42,196.47v-7.56l6.36-1.29v-45.14l-6.36-1.29v-7.6h47.56v17.23h-9.19l-.53-7.51h-19.49v17.32h20.92v9.72h-20.92v17.28l6.4,1.29v7.56h-24.74Z"/>
                <path class="cls-8" d="m296.32,196.47v-7.56l6.36-1.29v-45.14l-6.36-1.29v-7.6h24.7v7.6l-6.36,1.29v45.14l6.36,1.29v7.56h-24.7Z"/>
                <path class="cls-8" d="m349.99,197.37c-4.4,0-8.41-.52-12.02-1.55-3.61-1.04-7.17-2.84-10.67-5.4v-15.2h9.27l1.27,8.94c1.23,1.09,2.93,1.98,5.09,2.65,2.16.68,4.52,1.02,7.06,1.02,2.16,0,3.99-.32,5.48-.95,1.49-.63,2.63-1.53,3.4-2.7.78-1.16,1.17-2.54,1.17-4.12,0-1.5-.35-2.83-1.05-4-.7-1.16-1.84-2.23-3.45-3.2s-3.77-1.89-6.5-2.78c-4.73-1.47-8.65-3.08-11.76-4.82-3.1-1.74-5.43-3.83-6.97-6.26-1.55-2.43-2.32-5.36-2.32-8.79s.9-6.4,2.69-9c1.79-2.61,4.27-4.66,7.45-6.16,3.17-1.5,6.84-2.27,11-2.33,4.59-.06,8.66.52,12.2,1.73,3.54,1.21,6.6,2.9,9.17,5.05v14.17h-8.99l-1.56-8.64c-1.04-.69-2.44-1.3-4.21-1.82-1.77-.52-3.77-.78-6.01-.78-1.91,0-3.6.3-5.07.9-1.46.6-2.62,1.48-3.47,2.64s-1.27,2.55-1.27,4.19c0,1.41.37,2.64,1.11,3.69s1.97,2.04,3.71,2.98c1.73.94,4.14,1.94,7.2,3,6.59,1.93,11.59,4.48,15,7.64s5.11,7.33,5.11,12.48c0,3.57-.91,6.66-2.75,9.26-1.84,2.61-4.4,4.62-7.71,6.03-3.31,1.41-7.18,2.11-11.61,2.11Z"/>
                <path class="cls-8" d="m376.78,196.47v-7.56l6.36-1.29v-45.14l-6.36-1.29v-7.6h24.74v7.6l-6.4,1.29v18.14h24.37v-18.14l-6.4-1.29v-7.6h24.74v7.6l-6.4,1.29v45.14l6.4,1.29v7.56h-24.74v-7.56l6.4-1.29v-17.28h-24.37v17.28l6.4,1.29v7.56h-24.74Z"/>
                <path class="cls-8" d="m468.63,197.18c-3.1,0-5.8-.59-8.09-1.76-2.29-1.17-4.06-2.8-5.32-4.9s-1.88-4.53-1.88-7.3c0-2.55.64-4.76,1.93-6.64s3.23-3.8,5.85-5.76c.1-.09.22-.18.34-.27.12-.09.23-.17.34-.24-1.46-2.08-2.54-3.97-3.26-5.68-.72-1.71-1.08-3.46-1.08-5.24,0-2.61.53-4.88,1.58-6.8,1.05-1.91,2.53-3.4,4.45-4.46,1.91-1.06,4.16-1.59,6.73-1.59,2.27,0,4.27.51,5.99,1.54,1.72,1.03,3.07,2.4,4.05,4.11.97,1.71,1.46,3.63,1.46,5.75s-.53,4.22-1.58,6.05c-1.05,1.83-2.48,3.42-4.3,4.8l-2.99,2.23,8.87,10.89c.77-1.35,1.37-2.82,1.8-4.39.43-1.58.64-3.25.64-5.01h7c0,3.11-.36,5.97-1.09,8.59-.73,2.61-1.84,4.94-3.34,6.96l6.68,8.25-.06.17h-10.41l-2.47-3.01c-1.82,1.24-3.7,2.17-5.62,2.79s-3.99.93-6.2.93Zm.48-7.57c1.14,0,2.27-.15,3.4-.46,1.14-.3,2.23-.76,3.28-1.37l-9.64-11.76-.61.44c-1.09,1.08-1.84,2.14-2.23,3.16s-.59,2.06-.59,3.09c0,2.01.59,3.65,1.77,4.95,1.18,1.3,2.72,1.94,4.63,1.94Zm-.51-23.94l2.76-1.9c1.2-.81,2.01-1.65,2.42-2.5.42-.86.63-1.79.63-2.81,0-1.13-.39-2.13-1.17-3.01-.78-.88-1.8-1.32-3.07-1.32-1.39,0-2.46.49-3.21,1.47s-1.12,2.2-1.12,3.67c0,.97.23,1.97.69,2.99s1.15,2.16,2.07,3.4Z"/>
                <path class="cls-8" d="m518.27,196.47l-13.87-54.63-6.11-.65v-7.6h24.04v7.6l-6.44.99,7.01,30.58,1.27,5.61h.25l1.52-5.61,11.82-39.17h8.82l12.27,40.25,1.44,4.97h.25l1.23-4.97,7.26-31.66-6.81-.99v-7.6h23.59v7.6l-5.7.65-14.03,54.63h-10.83l-11.32-36.75-1.44-5.18h-.25l-1.6,5.35-11.45,36.58h-10.91Z"/>
                <path class="cls-8" d="m589.54,196.47v-7.56l6.36-1.29v-45.14l-6.36-1.29v-7.6h24.7v7.6l-6.36,1.29v45.14l6.36,1.29v7.56h-24.7Z"/>
                <path class="cls-8" d="m618.83,196.47v-7.56l6.36-1.29v-45.14l-6.36-1.29v-7.6h25.56v7.6l-7.22,1.29v44.31h16.86l.58-9.2h9.15v18.87h-44.93Z"/>
                <path class="cls-8" d="m668.07,196.47v-7.56l6.44-1.42v-44.83l-6.44-1.47v-7.6h26.22c5.33,0,10.04,1.32,14.11,3.95,4.08,2.64,7.26,6.28,9.54,10.93,2.28,4.65,3.43,9.98,3.43,16v1.17c0,5.96-1.13,11.26-3.39,15.92-2.26,4.65-5.41,8.3-9.46,10.95s-8.74,3.97-14.07,3.97h-26.38Zm18.42-9.63h7.34c3.31,0,6.11-.91,8.41-2.74s4.06-4.34,5.27-7.54c1.22-3.2,1.83-6.84,1.83-10.93v-1.21c0-4.14-.61-7.81-1.83-10.99-1.22-3.18-2.97-5.67-5.27-7.47s-5.1-2.7-8.41-2.7h-7.34v43.58Z"/>
                <path class="cls-8" d="m726.58,196.47v-7.56l6.36-1.29v-45.14l-6.36-1.29v-7.6h25.56v7.6l-7.22,1.29v44.31h16.86l.58-9.2h9.15v18.87h-44.93Z"/>
                <path class="cls-8" d="m775.81,196.47v-7.56l6.36-1.29v-45.14l-6.36-1.29v-7.6h24.7v7.6l-6.36,1.29v45.14l6.36,1.29v7.56h-24.7Z"/>
                <path class="cls-8" d="m805.11,196.47v-7.56l6.36-1.29v-45.14l-6.36-1.29v-7.6h47.56v17.23h-9.19l-.53-7.51h-19.49v17.32h20.92v9.72h-20.92v17.28l6.4,1.29v7.56h-24.74Z"/>
                <path class="cls-8" d="m857.01,196.47v-7.56l6.36-1.29v-45.14l-6.36-1.29v-7.6h46.36v16.98h-9.19l-.53-7.26h-18.3v15.81h20.23v9.72h-20.23v17.97h19.28l.53-7.51h9.11v17.19h-47.27Z"/>
              </g>
            </g>
          </g>
        </g>
      </g>
      <g id="full">
        <g>
          <path class="cls-7" d="m105.79,261.27c-22.14,0-44.01-9.72-61.6-27.36-23.87-23.95-37.48-59.53-37.34-97.62-.12-40.6,13.3-76.46,37.78-101.02C62.37,17.47,85.12,6.85,105.5,6.85h.96c23.12,0,47.74,12.16,65.86,32.52,15.11,16.98,33.11,47.58,33.11,96.95,0,34.22-10.61,66.01-29.87,89.52-18.71,22.84-43.49,35.41-69.77,35.41"/>
          <path class="cls-6" d="m106.46,6.85c23.12,0,47.74,12.16,65.86,32.52,15.11,16.98,33.11,47.58,33.11,96.95,0,34.22-10.61,66.01-29.87,89.52-18.71,22.84-43.49,35.41-69.77,35.41-22.14,0-44.02-9.72-61.6-27.36-23.87-23.95-37.48-59.53-37.34-97.62-.12-40.6,13.3-76.46,37.78-101.02C62.37,17.47,85.12,6.85,105.5,6.85h.96Zm0-6.85h-.96c-22.16,0-46.72,11.37-65.71,30.42C14,56.28-.13,93.88,0,136.3c-.14,39.85,14.2,77.21,39.34,102.44,18.88,18.95,42.48,29.38,66.45,29.38,28.38,0,55.04-13.47,75.08-37.93,20.26-24.73,31.42-58.07,31.42-93.87,0-51.53-18.95-83.64-34.85-101.51C158.04,13.02,131.5,0,106.46,0"/>
          <path class="cls-4" d="m83.36,162.53c-.92-.57-.49-1.6-.49-1.6,0,0-.49-2.1-4.3-3.36-4.49-1.49-6.58-1.57-7.38-1.34-.59.17,2.21,2.35,3.28,3.51.93,1.01.93,1.8,1.95,2.22,1.4.58,1.44,0,2.56.35.58.19.7,1.05.09,1.12-9.26,1.05-20.28-8.21-21.29-7.74-2.66,1.24-5.87,1.79-6.86,1.52-1.81-.49-7.26-5.72-6.93-6.37.32-.64,7.02-.84,7.02-.84-3.52-1.2-6.24-6.63-11.07-11.09-13.18-12.16-24.73-6.2-29.3,6.83-2.53,7.21-1.87,14.77-1.87,14.77,0,0-2.55-15.48,3.4-26.72,5.36-10.13,12.97-13.34,12.97-13.34-4.05-3.64-3.47-4.28,1.41-3.55,3.45.51,4.31,1.13,4.76,1,11.47-3.48,16.98-.52,17.87-.9,1.04-.44-1.16-2.57-.49-3.01,1.92-1.26,5.48,1.52,11.52-1.82,3.7-2.05,2.79,10.4,4.04,11.53,16.93,15.24,20.94,35.3,20.52,37.82-.23,1.37-.84,1.41-1.41,1.05"/>
          <path class="cls-5" d="m190.46,146.83c-3.95-4.41-2.47-11.48-5.08-16.99-2.94-6.22-.34-10.61-2.25-11.27-2.82-.98-3.46,7.27-7.83,7.58-12.22.87-19.21-1.54-21.29-2.72-6.66-3.8-10.69-15.24-9.77-16,5.18-1.46,7.15-6.05,6.39-6.66-.62-.5-3.81,0-5.95,1.33,9.96-19.12,3.24-32.43.14-34.98-.13-.11-.32-.14-.41-.03-.1.11-.05.31.03.46,5.49,9.56,2.39,21.85.35,22.18-3.01.48-7.4-8.25-9.14-11.76-.12-.23-.29-.75-.48-.71-.22.05-.27.2-.21.66.44,3.31,3.26,10.67,7.09,15.35,1.14,1.39,1.04,2.78.9,3.94-.14,1.11-.88,4.7-1.9,5.28-7.39.93-5.01.96-14.34,1.89-1.87.19-3.69,2.15-.85,3.8,3.72,2.17,6.92,2.64,9.12,4.01,1.25.77,5.59,11,1.7,16.44-4.18,5.12-30.12,16.5-28.24,19.37,1.28,1.95,12.87-6.48,31.37-10.13,11.79,7.96,24.77.6,33.28,4.45,12.06,12.23,25.5,11.7,28.97,26.22,0,0,1.08-4.88.74-7.43-.63-4.68-8.85-10.37-12.34-14.26"/>
          <path class="cls-5" d="m131,243.29c-.45-.24-.93,1.1-1.57,2.07-.63.96-1.64.66-2.46,1.27-1.83,1.36-3.04-.86-5.25-.75-.86.05-2.87-.41-2.49-.87.19-.23,1.56-.3,2.82-.23,2.5.15,3.61-.14,4.84-1.01,1.25-.88,3.5-3.52,3.72-4.78.19-1.09-.33-5.52-.64-5.57-.37-.07-1.26,3.43-1.11,4.53-3.09,1.87-1.93,2.58-3.15,3.47-.85.62-.83.04-2.35.03-1.21,0-3.28.86-2.87.28.32-.45,4.17-2.16,5.24-5.26,2.03-5.86-.9-12.38-7.78-13.7-2.67-.52-5.63.48-5.77,1.02-.09.34.93-.08,2.28.23,3.21.74,4.27,2.57,4.11,3.12-.26.89-2.74.22-4.37-.11-1.11-.22-2.31-.31-2.39-.02-.1.33.76,1.29,3.41,2.57,1.19.58,1.58.47,2.4,1.45,1.86,2.23,3,1.35,3.88,2.31.69.76-.49,1.85-.64,2.59-.33,1.65-.1,1.91-.85,1.99-.84.09-2.96-2.26-7.31-3.69-.18-.06.24-.18.34-.83.06-.38-.07-.83-.51-.97-.39-.12-.82.2-.92.57-.19.64-.06.91-.37.83-2.33-.61-7.12-.61-9.99,0-.31.07-.19-.19-.37-.83-.11-.37-.53-.69-.92-.57-.44.14-.57.59-.51.97.1.65.53.77.34.83-4.35,1.44-6.47,3.79-7.31,3.69-.75-.08-.52-.35-.85-1.99-.15-.75-1.31-1.81-.64-2.59.72-.85,2.02-.08,3.88-2.31.82-.98,1.21-.87,2.4-1.45,2.64-1.28,3.5-2.24,3.4-2.57-.08-.29-1.28-.21-2.39.02-1.63.33-4.11,1-4.37.11-.16-.54.9-2.38,4.11-3.12,1.35-.31,2.37.11,2.28-.23-.14-.54-3.1-1.53-5.77-1.02-6.88,1.33-9.81,7.84-7.78,13.7,1.07,3.1,4.93,4.81,5.24,5.26.4.58-1.67-.29-2.87-.28-1.51,0-1.5.59-2.35-.03-1.22-.88-.06-1.59-3.15-3.47.15-1.09-.74-4.59-1.11-4.53-.31.06-.83,4.48-.64,5.57.22,1.26,2.47,3.9,3.72,4.78,1.23.86,2.33,1.15,4.84,1.01,1.26-.07,2.63,0,2.82.23.38.46-1.64.92-2.49.87-2.21-.12-3.42,2.11-5.25.75-.82-.61-1.83-.31-2.46-1.27-.64-.96-1.12-2.3-1.57-2.07-.1.05-.09,1.47.12,2.2.61,2.12,2.7,3.77,4.7,4.32,1.43.39,2.84-.22,5.32-1.63,1.32-.75,2.43-.82,2.93-.51,1.19.72-1.01.39-4.19,3.11-.67.57-1.98.69-2.64,1.81-.7,1.19.08,3.62.46,3.62.42,0,.34-1.18,1.23-2.21.77-.89,1.45-1.89,1.88-1.87,1.92.08,2.45-.39,3.36-1.03.8-.57,1.79-1.42,2.15-1.26,1.01.46,2.32.25,2.52.64.25.49-2.22.73-2.78,1.26-1.35,1.26-1.78,3.72-1.13,4.83.94,1.62,3.69,1.98,3.82,1.78.16-.25-.87-1.38-1.75-1.94-.42-.27-.02-.72.2-1.64.22-.91.04-1.81.97-1.89,2.76-.25,3.54-2.24,5.5-2.09.82.06,3.35.06,4.17,0,1.97-.15,2.74,1.84,5.51,2.09.92.09.75.98.97,1.89.22.92.63,1.37.2,1.64-.88.56-1.91,1.69-1.75,1.94.13.2,2.88-.16,3.82-1.78.65-1.11.22-3.57-1.13-4.83-.57-.53-2.92-.67-2.79-1.26.1-.42,1.34-.06,2.52-.64.35-.17,1.35.69,2.15,1.26.91.64,1.43,1.11,3.36,1.03.43-.02,1.12.98,1.89,1.87.89,1.03.81,2.22,1.23,2.21.38,0,1.16-2.43.46-3.62-.66-1.12-1.97-1.24-2.64-1.81-3.18-2.72-5.38-2.39-4.19-3.11.5-.31,1.61-.24,2.93.51,2.49,1.41,3.89,2.02,5.32,1.63,2-.55,4.08-2.2,4.7-4.32.21-.73.22-2.15.12-2.2"/>
          <path class="cls-1" d="m179.67,167.41c-8.08-9.12-22.19-15.81-46-10.37-11.77,2.69-25.91,9.38-42.86,18.17-47.02,24.39-72.51,5.8-81.42-10.99,0,0,.13.85.35,1.59,3.72,12.72,8.28,21,22.27,30.09,10.58,6.88,29.2,11.42,57.66-.53,14.7-6.17,28.18-12.57,39.68-14.86,16.52-3.28,28.96-.47,36.47,6.37,9.88,9.01,11.68,27.54-1.24,49.74-.69,1.18-.91,1.5-.91,1.5,0,0,.79-.69,1.33-1.28,11.98-13.01,19.21-26.78,21.58-39.42,2.25-12.01-.38-22.64-6.91-30.02"/>
          <path class="cls-2" d="m157.19,196.63c-10.67-10.83-31.61-7.05-61.51,5.98-40.53,17.67-62.47,9.05-78.36-11.8-.08-.1-1.07-1.48-1.07-1.48,0,0,.63,1.65.68,1.76,6.27,16.3,16.85,25.35,28.63,30.25,13.67,5.68,29.99,3.91,53.54-5.76,23.05-9.46,37.93-10.1,47.48-1.75,7.73,6.76,9.06,19.64,3.46,33.61-.24.61-.57,1.3-.57,1.3,0,0,.65-.59,1.15-1.23,15.87-20.28,17.01-41.82,6.57-50.89"/>
          <path class="cls-8" d="m172.31,39.38c8.41,9.44,17.71,23.12,24.31,41.9-1.48-1.53-5.84-2.44-9.5-2.51-6.91-.14-6.58-3.45-11.61-4.95-4.11-1.22-5.84-.05-10.05-1.96-4.8-2.18-7.58-7.81-6.55-7.43,1.75.64,2.43,1.06,5.13,1.21,2.6.14,2.88-.82,1.34-2.74-8.2-10.3-10.68-17.55-10.68-17.55,0,0,3.89,1.51,4.52.89.82-.78-6.1-10.38-8.82-17.56-.25-.67,1.55-.34,1.32-.96-1.25-3.28-3.15-7.47-3.69-7.35-.34.08-.26,1.69-1.48,5.74-.99,3.32-2.25,5.32-2.15,5.57.22.53,2.36-.36,2.36-.36-.64,3.73-5.48,10.13-5.25,10.93.22.75,3.85-.78,3.66-.03-.21.82-3.88,9.28-7.32,13.82-.88,1.15-.52,2.02,3.95.95,1.29-.32-.32,4.15-2.44,7.32-2.23,3.35-4.3,5.63-4.3,5.63l-1.96-6.28s4.47-1.51,2.92-3.07c-3.25-3.25-5.4-10.31-5.98-12.71-.78-3.19,1.99-.08,1.41-3.06-.56-2.85-3.41-5.51-3.5-8.55-.03-1.01,2.77-.55,1.78-1.95-2.63-3.76-3.06-10.23-4.04-9.3-.56.55-.88,9.1-3.52,17.19-.95,2.89-1.6,3.45-2.54,6.21-.71,2.11,2.81.4,2.11,2.34-1.25,3.47-2.88,7.03-4.4,10.27-3.03,6.46-4.25,8.82-2.43,9.06,3.4-.33,5.72-1.23,4.54,2.15-.8,2.28-4.96,7.18-4.96,7.18-1.74-.97-3.52-2.71-4.24-4.7-.22-.59,1.69-.29,1.85-.88.26-1.06-3.47-7.77-4.36-12.28-.18-.86,1.21.12,1.08-.74-.37-2.73-.59-4.88-.73-6.54-.33-3.78-.3-5-.99-4.52-.34.25-.78,1.23-1.38,2.8-.88,2.26-2.14,5.73-4.07,9.87-.78,1.7,2.36-.73,2.23.04-.52,3.26-2.88,7.02-4.51,8.86-1.47,1.66,3.96,2.02,3.96,2.02-1.1,3.92-3.56,6.42-6.03,10.5-3.83,6.36,7.1,1.66,6.61,4.1,0,0-1.58,4.32-6.7,6.14-3.36,1.19-6.35.55-10.61.92-6.72.58-8.82,1.92-12.43,3.32-4.66,1.82-9.34,1.63-12.72.27-2.06-.82-4.5-1.91-9.47-2.04-3.21-.1-11.48-3.18-11.48-3.18,0,0,7.36-1.14,5.18-2.51-3.85-2.41-7.03-4.95-6.81-5.2.75-.85,6.69.33,4.07-3.1-1.14-1.49-2.41-3.54-3.67-6.22-1.69-3.56-3.39-8.24-4.84-14.2-.19-.77,1.58.62,1.3-.37-.51-1.82-1.08-3.55-2.29-6.24-2.36-5.31-1.62-1.11-1.86.86-.74,5.8-1.95,8.1-2.39,9.67-.11.41,2.11-.1,2.11-.1,0,0-.7,2.14-3.85,7.61-3.26,5.69-6.05,6.76.41,5.28,0,0-2.15,4.09-4.41,6.44-2.51,2.62-5.25,3.81-5.25,3.81,0,0-2.22-.42-5.1,1,6.2-21.4,16.89-40.16,31.55-54.87C62.38,17.47,85.12,6.85,105.49,6.85h.96c23.13,0,47.75,12.16,65.86,32.53"/>
          <path class="cls-3" d="m175.39,36.65C156.5,15.41,130.74,2.74,106.46,2.74h-.96c-19.19,0-40.32,8.87-57.8,24.05-.85.73-1.7,1.48-2.54,2.26-1.17,1.07-2.32,2.17-3.44,3.3-.59.59-1.18,1.19-1.75,1.8-.69.71-1.36,1.44-2,2.17C15.1,61.46,2.62,96.74,2.74,136.29c-.14,39.15,13.9,75.8,38.54,100.52,18.36,18.43,41.27,28.57,64.5,28.57,27.54,0,53.45-13.11,72.96-36.92,19.85-24.24,30.79-56.96,30.79-92.13,0-50.67-18.58-82.18-34.15-99.68M93.69,8.09h25.07c1.32.23,2.64.51,3.96.82h-32.87c1.28-.31,2.56-.58,3.84-.82m-16.58,5.08h58.77c.64.27,1.28.54,1.92.82h-62.56c.62-.28,1.25-.56,1.87-.82m-10.22,5.08h79.32c.47.27.93.55,1.39.82h-82.1c.46-.28.93-.55,1.39-.82m-29.7,25.41h37.42c-.5.24-.99.5-1.48.82h-36.61c.22-.28.45-.55.67-.82m-3.94,5.08h34.93c-.26.26-.53.54-.8.82h-34.74c.2-.28.4-.55.6-.82m142.22,177.03c-18.68,22.81-43.43,35.37-69.69,35.37-22.11,0-43.96-9.71-61.52-27.33-23.85-23.93-37.44-59.48-37.31-97.55-.05-16.31,2.09-31.85,6.26-46.21,2.81-1.34,4.96-.94,4.96-.94,0,0,2.74-1.19,5.25-3.81.04-.04.08-.09.12-.14h-8.82c.09-.28.18-.55.27-.82h9.27c1.17-1.43,2.23-3.13,2.88-4.26h-10.65c.1-.28.21-.56.32-.84h7.15c-.18-.48,1.04-1.81,2.6-4.26h-8.06c.11-.27.23-.55.34-.82h8.22c.12-.19.23-.38.35-.58.84-1.46,1.5-2.67,2.03-3.68h-8.7c.13-.28.26-.55.39-.82h8.72c1.1-2.18,1.41-3.11,1.41-3.11,0,0-2.22.51-2.11.1.1-.36.25-.77.42-1.25h-6.32c.14-.27.29-.55.43-.82h6.17c.35-1.04.76-2.39,1.14-4.26h-4.95c.16-.27.31-.55.47-.82h4.63c.14-.76.27-1.59.39-2.51.06-.5.06-1.15.06-1.75h-2.44c.18-.27.35-.55.53-.82h1.92c.04-.94.22-1.35.96,0h30.77c-.25.27-.52.55-.78.82h-29.57c.12.26.26.55.41.89.59,1.31,1.03,2.4,1.38,3.38h23.56c-.22.21-.43.42-.65.63-.06.06-.14.13-.2.19h-22.41c.24.7.43,1.37.62,2.04.27.99-1.5-.4-1.3.37.15.63.31,1.24.47,1.85h17.99c-.3.27-.6.54-.91.82h-16.85c.41,1.51.84,2.93,1.28,4.26h10.76c-.31.27-.63.55-.94.82h-9.55c.53,1.55,1.07,2.96,1.62,4.26h2.93c-.34.29-.67.56-1,.82h-1.58c.14.32.28.63.43.94,0,0,0,0,0,0,1.24,3.02,2.74,5.16,3.87,6.65.16.21.29.4.39.58.07.13.11.24.15.35.02.04.04.09.06.13.04.14.06.26.06.38,0,0,0,0,0,.01,0,.12-.03.23-.07.32-.23.51-.99.71-1.84.82-.02,0-.04,0-.06,0-.14.02-.28.03-.42.05-.08,0-.16.02-.25.02-.11,0-.21.02-.32.03-.11.01-.23.02-.34.03-.06,0-.12.01-.18.02-.09,0-.18.02-.26.03-.05,0-.11.02-.16.02-.08.01-.15.03-.22.04-.05,0-.09.02-.13.03-.07.02-.13.04-.19.06-.03.01-.06.02-.09.03-.08.04-.14.08-.19.13h0s0,.07.03.13c0,.01.01.02.02.04.04.06.11.14.19.23.01.01.03.03.04.04.09.09.2.19.33.31.02.01.03.03.05.04.15.13.32.27.5.43.02.02.05.04.07.06.4.32.88.7,1.42,1.1.02.01.04.03.05.04.9.66,1.97,1.41,3.13,2.16,0,0,0,0,0,0,.32.21.64.41.97.62.54.34.49.67.11.97-1.15.9-5.29,1.54-5.29,1.54,0,0,.02,0,.07.03.27.1,1.53.56,3.17,1.11,1.47.49,3.24,1.04,4.85,1.45.04.01.08.02.12.03.15.04.3.07.44.11.14.03.27.06.41.09.12.03.25.05.37.08.15.03.3.06.45.09.1.02.21.04.3.05.16.03.31.05.46.07.08,0,.16.02.23.03.22.02.42.04.61.05,1.24.03,2.33.13,3.29.26,2.88.4,4.64,1.16,6.18,1.78h0c.38.15.78.29,1.19.41.13.04.26.07.39.11.3.08.6.15.91.21.15.03.29.06.45.09.38.06.77.12,1.16.16.97.1,1.99.1,3.04.02.37-.03.74-.07,1.12-.12.15-.02.3-.04.45-.06.31-.05.63-.11.95-.17.26-.05.52-.12.79-.19.24-.06.47-.12.71-.19.52-.15,1.05-.33,1.57-.53,0,0,0,0,0,0,.34-.13.67-.26.99-.39.1-.04.2-.08.3-.12,0,0,.02,0,.02,0,2.4-.99,4.42-1.9,8.32-2.47.84-.12,1.76-.23,2.8-.32,3.84-.33,6.65.14,9.63-.63.32-.08.65-.17.98-.29.32-.12.63-.24.93-.37.09-.04.17-.09.26-.13.2-.1.4-.19.58-.29.1-.06.19-.12.29-.17.16-.1.33-.19.48-.29.09-.06.16-.12.25-.17.15-.11.31-.21.45-.32.07-.05.13-.11.2-.16.15-.12.29-.24.43-.36.05-.04.09-.09.14-.13.15-.13.29-.26.42-.4.03-.03.05-.06.08-.09.14-.15.28-.29.4-.44.02-.02.03-.03.04-.05.14-.16.26-.31.38-.47h0c.22-.29.42-.57.58-.82.13-.2.24-.39.33-.56.02-.03.03-.06.05-.09.18-.32.29-.57.35-.7.01-.03.01-.03.02-.05.02-.04.03-.07.03-.07h0c.03-.14.01-.25-.02-.34,0,0,0-.02,0-.03-.04-.08-.11-.15-.19-.21-.02,0-.03-.02-.04-.03-.09-.05-.2-.09-.33-.11-.03,0-.05-.01-.08-.02-.13-.02-.27-.04-.43-.04-.04,0-.09,0-.14,0-.15,0-.31,0-.48,0-.08,0-.17,0-.25.01-.09,0-.18,0-.27.02-2.48.16-5.97.76-5-2.04.13-.38.33-.81.64-1.32,0,0,0,0,0,0,.39-.64.78-1.24,1.16-1.82.13-.2.27-.4.4-.59.31-.46.62-.91.92-1.35.19-.28.38-.56.57-.84,0,0,0,0,0,0,.22-.33.44-.66.65-.99.04-.05.07-.11.1-.16.63-1,1.19-2,1.65-3.1,0,0,0,0,0,0,.22-.52.41-1.06.57-1.64,0,0-5.43-.36-3.96-2.02.18-.2.36-.42.55-.67.19-.24.38-.49.57-.76h0c.19-.26.37-.53.56-.82h0c.2-.3.39-.62.58-.94.02-.04.04-.07.06-.11.18-.3.35-.61.51-.93.03-.07.07-.13.1-.2.15-.3.3-.61.45-.92.03-.07.06-.14.09-.21.14-.32.27-.64.39-.96h0c.1-.28.19-.55.27-.82.06-.19.11-.37.15-.55.09-.33.16-.65.22-.97.02-.1-.02-.14-.09-.15s-.18.02-.31.06c-.07.02-.14.05-.21.08-.38.16-.86.41-1.22.52-.07.02-.14.04-.2.05-.06,0-.11.01-.16,0-.05,0-.08-.02-.11-.05-.08-.08-.07-.25.07-.57,1.62-3.48,2.77-6.48,3.62-8.69.16-.42.32-.82.46-1.18.6-1.56,1.04-2.55,1.38-2.8.65-.46.66.66.95,4.06h12.49c.42-1.02.82-2.05,1.19-3.06.44-1.23-.81-1-1.6-1.2h-18.53c-.38-.28-.76-.55-1.13-.82h19.07c.01-.1.04-.2.08-.33.62-1.84,1.12-2.71,1.67-3.94h-27.08c-.6-.35-1.13-.63-1.57-.82h28.99c.17-.42.34-.88.53-1.45.31-.93.58-1.87.82-2.81H40.86c.25-.28.5-.55.75-.82h81.59c.36-1.47.67-2.9.92-4.26H45.76c.28-.28.57-.55.86-.82h77.65c.28-1.58.49-3.02.66-4.26H51.32c.33-.28.66-.55.99-.82h72.73c.26-1.92.44-3.2.64-3.4.53-.5.91,1.17,1.55,3.4h18.52c.27-.68.54-1.45.8-2.31.22-.74.39-1.37.53-1.95H57.8c.37-.27.74-.56,1.12-.82h88.37c.47-2.03.49-2.92.75-2.98.3-.07,1.04,1.24,1.85,2.98h4.33c.38.27.75.55,1.12.82h-5.08c.51,1.15,1.03,2.4,1.47,3.55.19.52-1.02.38-1.28.71h10.39c.33.27.66.54.98.82h-11.18c.55,1.37,1.23,2.81,1.98,4.26h13.87c.28.27.56.55.84.82h-14.29c.77,1.46,1.59,2.91,2.37,4.26h16.02c.25.28.52.54.77.82h-16.32c.95,1.64,1.8,3.1,2.42,4.26h17.5c.22.27.44.54.66.82h-17.74c.46.93.68,1.57.49,1.74-.63.62-4.52-.89-4.52-.89,0,0,.43,1.24,1.5,3.41h23.49c.19.27.39.55.58.82h-23.65c.62,1.2,1.41,2.63,2.4,4.26h24.13c.18.27.36.54.53.82h-24.16c.83,1.31,1.77,2.74,2.86,4.26h23.88c.16.27.32.54.48.82h-23.76c.74,1.02,1.53,2.06,2.4,3.15.33.42.57.78.72,1.11h22.95c.14.27.29.54.42.82h-23.19c-.07.6-.78.89-2.25.81-2.1-.12-2.97-.39-4.08-.81h-1.22c.19.79,1.22,2.58,2.87,4.26h29.95c.13.28.26.54.39.82h-29.45c.87.76,1.87,1.45,2.98,1.95,4.21,1.91,5.94.74,10.05,1.96.36.11.68.22.99.35h17.28c.11.27.23.55.34.82h-15.99c2.6,1.61,3.57,3.67,8.99,3.78,3.55.07,7.75.93,9.34,2.38,5.29,14.98,8.86,33.22,8.86,55.18,0,34.19-10.6,65.96-29.84,89.45M81.59,43.67h4.34c-.59.37-1.09.74-1.92.74s-1.61-.36-2.42-.74"/>
          <path class="cls-3" d="m144.4,31.68c-.06-.15.41-1,1.02-2.43h-17.94c.43,1.4.98,2.94,1.74,4.26h16.85c.33-.78.58-1.53.69-2.19,0,0-2.14.89-2.36.36"/>
          <path class="cls-3" d="m127.95,36.27c.02.8.24,1.57.55,2.32h14.89c.78-1.32,1.65-2.82,2.32-4.26h-15.97c.97,1.39-1.81.93-1.78,1.94"/>
          <path class="cls-3" d="m141.51,42.25c-.09-.3.54-1.39,1.4-2.84h-14.03c.72,1.44,1.67,2.84,2.22,4.26h13.5c.32-.75.53-1.28.57-1.45.19-.75-3.44.78-3.66.03"/>
          <path class="cls-3" d="m131.45,44.82c.58,2.98-2.19-.14-1.41,3.06.06.24.14.54.23.87h11.95c.81-1.6,1.51-3.09,2.03-4.26h-12.89c.03.11.07.22.1.33"/>
          <path class="cls-3" d="m141.78,49.58h-11.29c.36,1.2.86,2.7,1.49,4.26h7.36c.85-1.34,1.68-2.82,2.43-4.26"/>
          <path class="cls-3" d="m120.2,54.66h-11.61c-.16-.12-.33-.24-.49-.36,0,.11.02.25.03.36,0,0,0,0,0,0,.04.44.08.92.13,1.42.02.25.05.51.08.78.02.18.04.35.06.53.05.44.1.89.16,1.37,0,.05.01.09.02.14h0c.07.61.16,1.24.25,1.92.05.32-.12.39-.34.39-.14,0-.31-.03-.45-.03-.14,0-.26.03-.3.14-.02.06-.02.14,0,.24.07.36.16.73.27,1.11.02.06.04.13.05.2.18.63.39,1.28.62,1.94h0c.62,1.75,1.39,3.54,2.05,5.08,0,.01,0,.02.01.03.1.24.2.48.3.71.04.08.07.16.1.24.07.16.13.32.2.47.04.09.07.18.11.27.05.13.1.26.15.38.03.09.07.17.1.25.04.12.08.22.12.33.03.07.05.15.07.22.03.1.06.19.09.28.02.06.04.12.05.17.02.09.04.17.05.24,0,.04.02.08.02.12.01.1.01.19,0,.25-.02.08-.07.14-.14.19,0,0-.03,0-.04.02-.07.04-.14.08-.23.1-.6.19-1.61.13-1.44.57.03.09.07.17.11.25h0c.77,1.88,2.46,3.52,4.13,4.45,0,0,.06-.07.16-.19,0,0,0,0,0,0,.12-.14.29-.36.52-.63.03-.04.06-.08.1-.12.09-.11.17-.21.27-.33.03-.04.07-.09.11-.13.1-.12.2-.25.3-.38.04-.05.08-.11.12-.16.11-.14.21-.28.32-.42.04-.05.08-.11.12-.16.12-.16.24-.32.36-.48.03-.05.07-.09.1-.14.14-.18.27-.37.4-.55.02-.03.04-.06.06-.09.62-.86,1.19-1.74,1.59-2.49,0-.01.01-.02.02-.03.17-.31.3-.61.39-.87.11-.32.18-.6.23-.85,0-.04.02-.08.02-.12.04-.24.05-.44.04-.61,0-.02,0-.04,0-.06-.05-.36-.21-.58-.48-.71-.54-.26-1.49-.15-2.69,0-.51.07-1.07.14-1.66.2-.23-.03-.41-.1-.55-.2-.22-.17-.32-.44-.3-.82.02-.61.32-1.53.87-2.82,0-.01.01-.02.02-.04.18-.43.39-.89.62-1.4.12-.26.25-.54.38-.82.41-.88.87-1.85,1.39-2.96.2-.42.4-.87.6-1.3h-2.39c-.38-.28-.75-.55-1.13-.82h3.9c.64-1.39,1.27-2.82,1.88-4.26"/>
          <path class="cls-3" d="m141.8,56.98c-4.47,1.07-4.83.21-3.95-.95.32-.43.65-.89.97-1.38h-6.48c.65,1.5,1.43,2.99,2.31,4.26h7.34c.38-1.24.39-2.08-.19-1.94"/>
          <path class="cls-3" d="m136.01,60.59c1.55,1.56-2.92,3.07-2.92,3.07l.11.34h6.35c.89-1.38,1.67-2.95,2.16-4.26h-6.45c.24.3.49.59.75.85"/>
          <path class="cls-3" d="m27.65,79.25c.14-.24.21-.39.21-.39-.71.16-1.28.29-1.78.39h1.57Z"/>
          <path class="cls-3" d="m135.05,69.94s1.86-2.06,3.95-5.12h-5.55l1.6,5.12Z"/>
          <path class="cls-3" d="m100.49,18.44c-3.61-.85-7.21-1.27-10.75-1.27-7.1,0-17.66,1.75-27.78,10.06-1.26-.36-3.73-.9-7.16-.97-.23-.01-.49-.01-.74-.01-1.84,0-3.98.14-6.37.55-.64.55-1.29,1.11-1.92,1.7,2.95-.64,5.55-.84,7.84-.84,4.59,0,7.81,1.17,8.54,1.45.11.04.16.07.16.07h0c.29.01,10.38-10.27,27.42-10.27,3.21,0,6.66.37,10.35,1.23h-.11c-22.51,0-31.48,13.04-33.82,16.08-.21.12-.47.18-.78.18-2.33,0-7.66-2.99-17.07-2.99-.3,0-.59,0-.89.01-.26,0-.52.01-.78.03h-.15c-.51.01-1.01.05-1.54.08-.82.07-1.67.15-2.55.26-.11,0-.22.01-.33.04-.34.04-.7.1-1.06.15-.34.04-.7.1-1.06.16-.69.71-1.36,1.44-2,2.17,2.28-.48,4.48-.82,6.62-1,1.28-.11,2.51-.16,3.73-.16,6.02,0,10.35,1.3,13.2,2.15,1.65.49,2.84.84,3.87.84.64,0,1.21-.14,1.69-.42l.29-.16.19-.26.32-.41c2.81-3.72,11.35-14.98,32.12-14.98h.11l15.18.03-14.78-3.48Z"/>
          <path class="cls-8" d="m89.75,18.91c-17.04,0-27.13,10.28-27.42,10.28h0s-.05-.04-.16-.08c-.73-.29-3.95-1.45-8.54-1.45-2.29,0-4.89.19-7.84.84-5.69,1.23-12.7,4.11-21.24,10.36,5.83-2.48,10.94-3.93,15.42-4.7.36-.07.71-.12,1.06-.16.36-.05.71-.11,1.06-.15.11-.03.22-.04.33-.04.88-.12,1.73-.21,2.55-.26.52-.03,1.03-.07,1.54-.08h.15c.26-.01.52-.03.78-.03.3-.01.59-.01.89-.01,9.4,0,14.74,2.99,17.07,2.99.32,0,.58-.05.78-.18,2.34-3.04,11.31-16.08,33.82-16.08h.11c-3.69-.86-7.14-1.23-10.35-1.23"/>
        </g>
      </g>
    </g>
  </g>
</svg>